{"title":"Theo and Hugo (2016) 720P WEBRip","uid":15800423,"size":1691151881,"categoryP":"video","categoryS":"hd___movies","magnet":"?xt=urn:btih:fd1315c246d656bdd51d6767666e6bf4226d21d9&amp;dn=Theo+and+Hugo+%282016%29+720P+WEBRip&amp;tr=udp%3A%2F%2Ftracker.leechers-paradise.org%3A6969&amp;tr=udp%3A%2F%2Fzer0day.ch%3A1337&amp;tr=udp%3A%2F%2Fopen.demonii.com%3A1337&amp;tr=udp%3A%2F%2Ftracker.coppersurfer.tk%3A6969&amp;tr=udp%3A%2F%2Fexodus.desync.com%3A6969","seeders":18,"leechers":1,"uploader":"jmanwf","files":1,"time":1473493663,"description":"A new film by Olivier Ducastel and Jacques Martineau.\r\n&quot;Like WEEKEND this is bold, sexy, unflinching filmmaking&quot; QX Magazine\r\nThéo and Hugo encounter each other in a sex club, where their overwhelming desire creates an unexpected intimacy.\r\nLeaving the club they drift down the deserted streets of nocturnal Paris, but reality suddenly confronts them in an unexpected way. Do they want to know more about each other? Can their trust be rewarded? Will love come with the dawn of a new day?\r\nTold in real time this authentic tale of love and intimacy is Ducastel &amp; Martineauâ™s (Cockles &amp; Muscles, Drôle de Félix, Ma Vie, Born in ‘68) most ambitious film to date and a candid insight into 21st century romance.\r\n\r\nFormat : MPEG-4\r\nFormat profile : Base Media / Version 2\r\nCodec ID : mp42 (mp42/mp41/isom/avc1)\r\nFile size : 1.58 GiB\r\nDuration : 1 h 37 min\r\nOverall bit rate mode : Variable\r\nOverall bit rate : 2 322 kb/s\r\nEncoded date : UTC 2016-08-12 14:35:35\r\nTagged date : UTC 2016-08-12 14:35:35\r\n\r\nVideo\r\nID : 1\r\nFormat : AVC\r\nFormat/Info : Advanced Video Codec\r\nFormat profile :   \r\nFormat settings, CABAC : Yes\r\nFormat settings, ReFrames : 5 frames\r\nCodec ID : avc1\r\nCodec ID/Info : Advanced Video Coding\r\nDuration : 1 h 37 min\r\nBit rate : 2 083 kb/s\r\nWidth : 1 280 pixels\r\nHeight : 720 pixels\r\nDisplay aspect ratio : 16:9\r\nFrame rate mode : Constant\r\nFrame rate : 25.000 FPS\r\nColor space : YUV\r\nChroma subsampling : 4:2:0\r\nBit depth : 8 bits\r\nScan type : Progressive\r\nBits/(Pixel*Frame) : 0.090\r\nStream size : 1.41 GiB (90%)\r\nWriting library : x264 core 148 r10 3f5ed56\r\n\r\nEncoded date : UTC 2016-08-12 14:35:35\r\nTagged date : UTC 2016-08-12 14:35:35\r\nColor range : Limited\r\nColor primaries : BT.709\r\nTransfer characteristics : BT.709\r\nMatrix coefficients : BT.709\r\n\r\nAudio\r\nID : 2\r\nFormat : AAC\r\nFormat/Info : Advanced Audio Codec\r\nFormat profile : LC\r\nCodec ID : 40\r\nDuration : 1 h 37 min\r\nBit rate mode : Variable\r\nBit rate : 235 kb/s\r\nChannel(s) : 2 channels\r\nChannel positions : Front: L R\r\nSampling rate : 48.0 kHz\r\nFrame rate : 46.875 FPS (1024 spf)\r\nCompression mode : Lossy\r\nStream size : 163 MiB (10%)\r\nEncoded date : UTC 2016-08-12 14:35:35\r\nTagged date : UTC 2016-08-12 14:35:35\r\n \nhttps://s11.postimg.org/i2xsrwjcj/image.jpg\r\n\r\n\r\n \nhttps://s11.postimg.org/sea5kkb1v/image.jpg\r\n\r\n\r\n\r\n \nhttps://s11.postimg.org/v9n8rff1v/image.jpg\r\n\r\n\r\n\r\n \nhttp://www.imdb.com/title/tt5096628/?ref_=kw_li_tt","torrent":{"xt":"urn:btih:fd1315c246d656bdd51d6767666e6bf4226d21d9","amp;dn":"Theo+and+Hugo+%282016%29+720P+WEBRip","amp;tr":["udp%3A%2F%2Ftracker.leechers-paradise.org%3A6969","udp%3A%2F%2Fzer0day.ch%3A1337","udp%3A%2F%2Fopen.demonii.com%3A1337","udp%3A%2F%2Ftracker.coppersurfer.tk%3A6969","udp%3A%2F%2Fexodus.desync.com%3A6969"],"infoHash":"fd1315c246d656bdd51d6767666e6bf4226d21d9","infoHashBuffer":{"type":"Buffer","data":[253,19,21,194,70,214,86,189,213,29,103,103,102,110,107,244,34,109,33,217]},"announce":[],"urlList":[]}}